<svg width="8" height="6" viewBox="0 0 8 6" fill="none" xmlns="http://www.w3.org/2000/svg">
<path d="M7.47311 0.907595L6.83866 0.29889C6.75311 0.216818 6.64618 0.175781 6.52499 0.175781C6.4038 0.175781 6.29687 0.216818 6.21133 0.29889L3.16024 3.22614L1.79866 1.91298C1.71311 1.83091 1.60618 1.78987 1.48499 1.78987C1.3638 1.78987 1.25687 1.83091 1.17133 1.91298L0.536874 2.52169C0.444201 2.60376 0.401428 2.70635 0.401428 2.82262C0.401428 2.93889 0.4442 3.04148 0.529745 3.12355L2.21212 4.73765L2.84658 5.34635C2.93212 5.42842 3.03905 5.46946 3.16024 5.46946C3.28143 5.46946 3.38836 5.42842 3.4739 5.34635L4.10836 4.73765L7.47311 1.50946C7.55866 1.42739 7.60143 1.3248 7.60143 1.20853C7.60143 1.09226 7.55866 0.989667 7.47311 0.907595Z" fill="white"/>
</svg>
